<svg width="64" height="64" xmlns="http://www.w3.org/2000/svg">

 <g>
  <title>background</title>
  <rect fill="none" id="canvas_background" height="402" width="582" y="-1" x="-1"/>
 </g>
 <g>
  <title>Layer 1</title>
  <g transform="matrix(0.09251829056509653,0,0,0.09251829056509653,0,0) " id="svg_5">
   <path fill="#0000bf" stroke="#00007f" id="svg_7" d="m520.95417,467.822147c0,13.8 -11.2,25 -25,25s-25,-11.2 -25,-25s11.2,-25 25,-25s25,11.2 25,25z"/>
   <path fill="#0000bf" stroke="#00007f" id="svg_8" d="m232.95417,467.822147c0,13.8 -11.2,25 -25,25s-25,-11.2 -25,-25s11.2,-25 25,-25s25,11.2 25,25z"/>
   <path fill="#0000bf" stroke="#00007f" id="svg_9" d="m207.85417,147.822147l-11.1,-32l-52.8,0l0,17l41.7,0l57.5,213.3c-32.4,11.3 -59.9,37.9 -65.3,73.1c-1.9,11.7 -1.9,16.6 -1.9,16.6l352,0l0,-16.7l-332.7,0c4.7,-31.6 38.8,-58.1 74.1,-62.5s243.3,-34.2 243.3,-34.2l15.3,-174.6l-320.1,0zm288.1,160l-235,33.3c-0.9,0.2 -1.8,0.4 -2.7,0.6l-44.7,-177.3l297.7,0l-15.3,143.4z"/>
  </g>
  <g id="svg_10"/>
 </g>
</svg>