<svg xmlns="http://www.w3.org/2000/svg" xmlns:xlink="http://www.w3.org/1999/xlink" version="1.1" x="0px" y="0px" viewBox="0 0 100 125" enable-background="new 0 0 100 100" xml:space="preserve"><g><g><path fill="none" d="M69.302,28.988c0-11.011-8.958-19.968-19.968-19.968s-19.968,8.957-19.968,19.968    c0,11.01,8.957,19.968,19.968,19.968S69.302,39.998,69.302,28.988z"/><polygon fill="none" points="41.975,55.674 49.334,67.606 56.875,55.38   "/><path fill="none" d="M61.32,55.827L51.045,72.488c-0.366,0.594-1.013,0.955-1.71,0.955c-0.697,0-1.344-0.361-1.71-0.955    l-9.97-16.163c-10.571,5.449-18.19,17.693-19.6,31.735c-0.077,0.765,0.17,1.525,0.675,2.084c0.489,0.54,1.158,0.837,1.886,0.837    h58.769c0.728,0,1.398-0.297,1.887-0.837c0.505-0.559,0.751-1.319,0.675-2.084C80.479,73.453,72.456,61.005,61.32,55.827z"/><path d="M85.945,87.658c-1.682-16.751-11.373-30.973-24.687-36.229c-0.043-0.017-0.088-0.025-0.131-0.039    c-0.056-0.018-0.111-0.037-0.169-0.05c-0.148-0.033-0.296-0.049-0.444-0.048c-0.012,0-0.022-0.004-0.034-0.004l-2.453,0.048    c8.94-3.49,15.294-12.188,15.294-22.349C73.321,15.761,62.561,5,49.334,5S25.347,15.761,25.347,28.988    c0,10.494,6.776,19.428,16.18,22.675l-3.149,0.062c-0.008,0-0.016,0.003-0.024,0.004c-0.154,0.005-0.308,0.029-0.461,0.071    c-0.037,0.01-0.072,0.024-0.109,0.036c-0.059,0.02-0.118,0.033-0.176,0.059C24.727,57.56,15.702,71.264,14.055,87.659    c-0.19,1.894,0.428,3.782,1.694,5.182c1.242,1.373,3.015,2.16,4.866,2.16h58.769c1.852,0,3.626-0.787,4.867-2.161    C85.518,91.44,86.135,89.551,85.945,87.658z M29.366,28.988c0-11.011,8.957-19.968,19.968-19.968s19.968,8.957,19.968,19.968    c0,11.01-8.958,19.968-19.968,19.968S29.366,39.998,29.366,28.988z M41.975,55.674l14.9-0.294l-7.54,12.226L41.975,55.674z     M81.271,90.144c-0.489,0.54-1.159,0.837-1.887,0.837H20.616c-0.728,0-1.398-0.297-1.886-0.837    c-0.505-0.559-0.752-1.319-0.675-2.084c1.41-14.042,9.029-26.286,19.6-31.735l9.97,16.163c0.366,0.594,1.013,0.955,1.71,0.955    c0.697,0,1.344-0.361,1.71-0.955L61.32,55.827c11.135,5.178,19.159,17.625,20.625,32.233    C82.022,88.825,81.777,89.585,81.271,90.144z"/></g></g></svg>